STARTFONT 2.1
COMMENT $XConsortium: luIS19.bdf,v 1.3 94/04/02 15:59:56 gildea Exp $
COMMENT  (c) Copyright Bigelow & Holmes 1986, 1985. Lucida is a registered
COMMENT  trademark of Bigelow & Holmes. See LEGAL NOTICE file for terms 
COMMENT  of the license. 
FONT -RFX-Serene-Medium-I-Normal-Sans-19-190-75-75-P-108-iso10646-0400
SIZE 19 72 72
FONTBOUNDINGBOX 34 22 -11 -4
STARTPROPERTIES 24
FONTNAME_REGISTRY ""
FOUNDRY "RFX"
FAMILY_NAME "Serene"
WEIGHT_NAME "Medium"
SLANT "I"
SETWIDTH_NAME "Normal"
ADD_STYLE_NAME "Sans"
PIXEL_SIZE 19
POINT_SIZE 190
RESOLUTION_X 75
RESOLUTION_Y 75
SPACING "P"
AVERAGE_WIDTH "108"
CHARSET_REGISTRY "iso10646"
CHARSET_ENCODING "0400"
COPYRIGHT "Copyright Bigelow & Holmes 1986, 1985."
FONT_ASCENT 17
FONT_DESCENT 4
DEFAULT_CHAR 32
FACE_NAME "Lucida Sans Italic"
COPYRIGHT2 "Cyrillic glyphs copyright 2000 Dmitry Yu. Bolkhovityanov, bolkhov@inp.nsk.su"
SOURCEDATE "Sat Jul 29 11:48:26 2000"
PKGVERSION "1.1"
ASSEMBLER "cvtbdf.pl (Linux)"
ENDPROPERTIES
CHARS 305
STARTCHAR space
ENCODING 32
SWIDTH 316 0
DWIDTH 6 0
BBX 0 0 0 0
BITMAP
ENDCHAR
STARTCHAR exclam
ENCODING 33
SWIDTH 193 0
DWIDTH 6 0
BBX 5 14 2 0
BITMAP
18
18
10
30
30
30
30
20
60
60
00
00
C0
C0
ENDCHAR
STARTCHAR quotedbl
ENCODING 34
SWIDTH 361 0
DWIDTH 7 0
BBX 5 5 3 9
BITMAP
D8
D8
D8
D8
D8
ENDCHAR
STARTCHAR numbersign
ENCODING 35
SWIDTH 633 0
DWIDTH 12 0
BBX 12 14 1 0
BITMAP
0130
0270
0260
04E0
7FF0
7FF0
0880
1980
1100
FFE0
FFE0
2600
6E00
DC00
ENDCHAR
STARTCHAR dollar
ENCODING 36
SWIDTH 633 0
DWIDTH 12 0
BBX 9 17 3 -2
BITMAP
0200
1F80
3F80
3400
2400
2400
1800
0800
0C00
0E00
0B00
1300
1300
F600
FC00
1000
1000
ENDCHAR
STARTCHAR percent
ENCODING 37
SWIDTH 741 0
DWIDTH 14 0
BBX 14 14 2 0
BITMAP
1C0C
3E10
6220
6660
7CC0
3980
03E0
03F0
0590
0910
1B10
3330
61E0
C1C0
ENDCHAR
STARTCHAR ampersand
ENCODING 38
SWIDTH 701 0
DWIDTH 13 0
BBX 12 14 2 0
BITMAP
0380
07C0
0C40
0C40
0DC0
0F00
3E00
6630
C330
C360
C1E0
E1C0
7FC0
3CE0
ENDCHAR
STARTCHAR quotesingle
ENCODING 39
SWIDTH 217 0
DWIDTH 4 0
BBX 2 5 3 9
BITMAP
C0
C0
C0
C0
C0
ENDCHAR
STARTCHAR parenleft
ENCODING 40
SWIDTH 325 0
DWIDTH 6 0
BBX 6 18 2 -4
BITMAP
04
0C
18
10
30
60
60
40
C0
C0
C0
C0
C0
C0
C0
60
60
20
ENDCHAR
STARTCHAR parenright
ENCODING 41
SWIDTH 325 0
DWIDTH 6 0
BBX 6 18 0 -4
BITMAP
10
18
0C
0C
0C
04
04
04
0C
0C
0C
08
18
10
30
60
C0
80
ENDCHAR
STARTCHAR asterisk
ENCODING 42
SWIDTH 470 0
DWIDTH 9 0
BBX 7 7 3 7
BITMAP
18
10
D6
6C
30
C8
48
ENDCHAR
STARTCHAR plus
ENCODING 43
SWIDTH 633 0
DWIDTH 12 0
BBX 11 12 2 0
BITMAP
0700
0600
0600
0600
0600
FFE0
FFE0
0C00
0C00
0C00
0C00
1C00
ENDCHAR
STARTCHAR comma
ENCODING 44
SWIDTH 316 0
DWIDTH 6 0
BBX 3 7 1 -4
BITMAP
60
60
60
60
40
40
80
ENDCHAR
STARTCHAR minus
ENCODING 45
SWIDTH 633 0
DWIDTH 12 0
BBX 11 2 2 5
BITMAP
FFE0
FFE0
ENDCHAR
STARTCHAR period
ENCODING 46
SWIDTH 316 0
DWIDTH 6 0
BBX 3 2 2 0
BITMAP
E0
C0
ENDCHAR
STARTCHAR slash
ENCODING 47
SWIDTH 482 0
DWIDTH 9 0
BBX 12 18 0 -4
BITMAP
0030
0020
0060
00C0
0080
0180
0100
0300
0200
0400
0C00
0800
1800
1000
3000
6000
4000
C000
ENDCHAR
STARTCHAR zero
ENCODING 48
SWIDTH 633 0
DWIDTH 12 0
BBX 10 14 2 0
BITMAP
0F00
1F80
39C0
30C0
60C0
60C0
C0C0
C0C0
C080
C180
C180
E300
7E00
3C00
ENDCHAR
STARTCHAR one
ENCODING 49
SWIDTH 633 0
DWIDTH 12 0
BBX 5 14 5 0
BITMAP
78
F8
10
30
30
30
30
60
60
60
60
60
C0
C0
ENDCHAR
STARTCHAR two
ENCODING 50
SWIDTH 633 0
DWIDTH 12 0
BBX 11 14 2 0
BITMAP
0F80
1FE0
10E0
0060
0060
00C0
0180
0300
0E00
1800
3000
6000
FF80
FF80
ENDCHAR
STARTCHAR three
ENCODING 51
SWIDTH 633 0
DWIDTH 12 0
BBX 10 14 2 0
BITMAP
1F00
1F80
11C0
0080
0180
0300
1C00
3F00
0380
0180
0180
8300
FE00
FC00
ENDCHAR
STARTCHAR four
ENCODING 52
SWIDTH 633 0
DWIDTH 12 0
BBX 10 14 2 0
BITMAP
01C0
01C0
0380
0680
0D80
1980
3180
2100
4100
FFC0
FFC0
0300
0300
0600
ENDCHAR
STARTCHAR five
ENCODING 53
SWIDTH 633 0
DWIDTH 12 0
BBX 10 14 3 0
BITMAP
1FC0
1FC0
3000
3000
2000
3C00
3F00
0300
0180
0180
0300
8700
FE00
F800
ENDCHAR
STARTCHAR six
ENCODING 54
SWIDTH 633 0
DWIDTH 12 0
BBX 10 14 2 0
BITMAP
07C0
1FC0
3840
3000
6000
7F00
FF80
E180
C180
C180
C180
E300
7E00
3C00
ENDCHAR
STARTCHAR seven
ENCODING 55
SWIDTH 633 0
DWIDTH 12 0
BBX 11 14 3 0
BITMAP
3FE0
3FE0
00E0
01C0
0380
0700
0E00
1C00
3800
3000
7000
6000
E000
C000
ENDCHAR
STARTCHAR eight
ENCODING 56
SWIDTH 633 0
DWIDTH 12 0
BBX 10 14 3 0
BITMAP
0F00
1F80
30C0
3080
3180
3B00
3E00
7F00
6300
C180
C180
E300
FF00
3C00
ENDCHAR
STARTCHAR nine
ENCODING 57
SWIDTH 633 0
DWIDTH 12 0
BBX 10 14 2 0
BITMAP
0F00
1F80
38C0
60C0
60C0
60C0
61C0
7FC0
3EC0
0180
0380
8700
FE00
7800
ENDCHAR
STARTCHAR colon
ENCODING 58
SWIDTH 316 0
DWIDTH 6 0
BBX 4 10 2 0
BITMAP
30
30
00
00
00
00
00
00
C0
C0
ENDCHAR
STARTCHAR semicolon
ENCODING 59
SWIDTH 316 0
DWIDTH 6 0
BBX 4 14 2 -4
BITMAP
30
30
00
00
00
00
00
00
60
40
40
40
40
80
ENDCHAR
STARTCHAR less
ENCODING 60
SWIDTH 633 0
DWIDTH 12 0
BBX 12 12 2 0
BITMAP
0010
0070
01C0
0700
1C00
7000
F000
3C00
1E00
0780
01C0
00C0
ENDCHAR
STARTCHAR equal
ENCODING 61
SWIDTH 633 0
DWIDTH 12 0
BBX 12 5 1 3
BITMAP
7FF0
7FF0
0000
FFE0
FFE0
ENDCHAR
STARTCHAR greater
ENCODING 62
SWIDTH 633 0
DWIDTH 12 0
BBX 12 12 1 0
BITMAP
3000
3800
1E00
0700
03C0
00F0
00E0
0380
0E00
3800
E000
8000
ENDCHAR
STARTCHAR question
ENCODING 63
SWIDTH 464 0
DWIDTH 9 0
BBX 8 14 3 0
BITMAP
7C
7E
87
03
06
0C
18
30
60
60
60
00
C0
C0
ENDCHAR
STARTCHAR at
ENCODING 64
SWIDTH 858 0
DWIDTH 16 0
BBX 14 14 2 0
BITMAP
03E0
0FF8
1C1C
33E4
67E4
4C44
8844
91C4
998C
9EF8
CCF0
6080
3F80
1F00
ENDCHAR
STARTCHAR A
ENCODING 65
SWIDTH 687 0
DWIDTH 13 0
BBX 13 14 0 0
BITMAP
00C0
01E0
01E0
0360
0260
0660
0C70
0C30
1830
1FF0
3FF0
2038
6018
C018
ENDCHAR
STARTCHAR B
ENCODING 66
SWIDTH 593 0
DWIDTH 11 0
BBX 10 14 2 0
BITMAP
1F80
3FC0
30C0
30C0
3080
3380
7E00
7F00
6380
6180
6180
C380
FF00
FE00
ENDCHAR
STARTCHAR C
ENCODING 67
SWIDTH 679 0
DWIDTH 13 0
BBX 13 14 2 0
BITMAP
03F0
0FF8
1C08
3800
7000
6000
E000
C000
C000
C000
C000
6020
7FE0
1F00
ENDCHAR
STARTCHAR D
ENCODING 68
SWIDTH 743 0
DWIDTH 14 0
BBX 13 14 2 0
BITMAP
1FE0
3FF0
3078
3018
3018
3018
6018
6018
6030
6030
6060
C1E0
FFC0
FF00
ENDCHAR
STARTCHAR E
ENCODING 69
SWIDTH 547 0
DWIDTH 10 0
BBX 10 14 2 0
BITMAP
1FC0
3FC0
3000
3000
3000
2000
7F00
7F00
6000
6000
6000
C000
FF00
FF00
ENDCHAR
STARTCHAR F
ENCODING 70
SWIDTH 536 0
DWIDTH 10 0
BBX 10 14 2 0
BITMAP
1FC0
3FC0
3000
3000
3000
2000
7F00
7F00
6000
6000
6000
C000
C000
C000
ENDCHAR
STARTCHAR G
ENCODING 71
SWIDTH 702 0
DWIDTH 13 0
BBX 12 14 2 0
BITMAP
07E0
0FF0
3C10
3000
6000
6000
C000
C060
C060
C0C0
E0C0
70C0
7FC0
1F00
ENDCHAR
STARTCHAR H
ENCODING 72
SWIDTH 735 0
DWIDTH 14 0
BBX 13 14 2 0
BITMAP
1818
3018
3018
3030
3030
3030
7FF0
7FF0
6020
6060
6060
C060
C060
C0C0
ENDCHAR
STARTCHAR I
ENCODING 73
SWIDTH 289 0
DWIDTH 5 0
BBX 5 14 2 0
BITMAP
18
18
10
30
30
30
30
60
60
60
60
40
C0
C0
ENDCHAR
STARTCHAR J
ENCODING 74
SWIDTH 408 0
DWIDTH 8 0
BBX 9 18 0 -4
BITMAP
0180
0180
0180
0300
0300
0300
0300
0300
0200
0600
0600
0600
0600
0600
0C00
0C00
F800
F000
ENDCHAR
STARTCHAR K
ENCODING 75
SWIDTH 635 0
DWIDTH 12 0
BBX 12 14 2 0
BITMAP
1830
3060
30C0
3180
3300
3600
6C00
7C00
6E00
6600
6300
C380
C180
C0C0
ENDCHAR
STARTCHAR L
ENCODING 76
SWIDTH 545 0
DWIDTH 10 0
BBX 9 14 2 0
BITMAP
1800
1800
3000
3000
3000
3000
2000
6000
6000
6000
6000
4000
FF80
FF80
ENDCHAR
STARTCHAR M
ENCODING 77
SWIDTH 828 0
DWIDTH 16 0
BBX 15 14 2 0
BITMAP
180E
3C0E
3C1E
3C1C
3C3C
2C6C
644C
66CC
6688
6798
4718
C718
C618
C030
ENDCHAR
STARTCHAR N
ENCODING 78
SWIDTH 741 0
DWIDTH 14 0
BBX 13 14 2 0
BITMAP
1818
3818
3C18
3C10
2C30
2630
6630
6330
6320
61A0
41E0
C1E0
C0E0
C0C0
ENDCHAR
STARTCHAR O
ENCODING 79
SWIDTH 777 0
DWIDTH 15 0
BBX 13 14 2 0
BITMAP
03E0
0FF0
1C38
3018
7018
6018
C018
C018
C018
C030
E070
60E0
7FC0
1F00
ENDCHAR
STARTCHAR P
ENCODING 80
SWIDTH 575 0
DWIDTH 11 0
BBX 10 14 2 0
BITMAP
1F80
3FC0
30C0
30C0
30C0
2180
6380
7F00
7C00
6000
6000
C000
C000
C000
ENDCHAR
STARTCHAR Q
ENCODING 81
SWIDTH 777 0
DWIDTH 15 0
BBX 13 18 2 -4
BITMAP
03E0
0FF0
1C38
3018
7018
6018
C018
C018
C018
C030
E070
60E0
7FC0
1F00
01C0
00F0
0078
0030
ENDCHAR
STARTCHAR R
ENCODING 82
SWIDTH 632 0
DWIDTH 12 0
BBX 10 14 2 0
BITMAP
1F80
3FC0
30C0
30C0
30C0
3180
6300
7C00
7E00
6600
6300
C300
C180
C1C0
ENDCHAR
STARTCHAR S
ENCODING 83
SWIDTH 553 0
DWIDTH 11 0
BBX 11 14 1 0
BITMAP
0FC0
1FE0
3840
3000
3000
1800
0E00
0700
0380
0180
0180
8380
FF00
3E00
ENDCHAR
STARTCHAR T
ENCODING 84
SWIDTH 623 0
DWIDTH 12 0
BBX 12 14 3 0
BITMAP
FFF0
FFF0
0600
0600
0C00
0C00
0C00
0C00
0800
1800
1800
1800
1800
3000
ENDCHAR
STARTCHAR U
ENCODING 85
SWIDTH 693 0
DWIDTH 13 0
BBX 12 14 2 0
BITMAP
3030
3030
6030
6020
6060
6060
6060
C060
C0C0
C0C0
C0C0
E180
FF80
7E00
ENDCHAR
STARTCHAR V
ENCODING 86
SWIDTH 687 0
DWIDTH 13 0
BBX 12 14 3 0
BITMAP
C030
C060
C060
60C0
60C0
6180
6180
6300
3200
3600
3C00
3C00
3800
3800
ENDCHAR
STARTCHAR W
ENCODING 87
SWIDTH 886 0
DWIDTH 17 0
BBX 16 14 3 0
BITMAP
C183
C182
C386
C384
C78C
C58C
CD98
C998
D9B0
59B0
50E0
70E0
60C0
60C0
ENDCHAR
STARTCHAR X
ENCODING 88
SWIDTH 620 0
DWIDTH 12 0
BBX 14 14 0 0
BITMAP
181C
0C18
0C30
0660
06C0
0380
0300
0380
0780
0DC0
18C0
30E0
6060
C070
ENDCHAR
STARTCHAR Y
ENCODING 89
SWIDTH 608 0
DWIDTH 12 0
BBX 11 14 3 0
BITMAP
C0E0
60C0
6180
7380
3700
3600
1C00
1800
1800
1800
1800
3000
3000
3000
ENDCHAR
STARTCHAR Z
ENCODING 90
SWIDTH 578 0
DWIDTH 11 0
BBX 12 14 1 0
BITMAP
1FF0
1FF0
0060
00C0
0180
0300
0700
0E00
1C00
1800
3000
6000
FFC0
FFC0
ENDCHAR
STARTCHAR bracketleft
ENCODING 91
SWIDTH 325 0
DWIDTH 6 0
BBX 7 18 1 -4
BITMAP
1E
1E
18
10
10
30
30
30
20
20
60
60
60
40
40
C0
F0
F0
ENDCHAR
STARTCHAR backslash
ENCODING 92
SWIDTH 482 0
DWIDTH 9 0
BBX 5 18 3 -4
BITMAP
80
C0
C0
40
40
60
60
60
20
20
30
30
30
10
10
18
18
08
ENDCHAR
STARTCHAR bracketright
ENCODING 93
SWIDTH 325 0
DWIDTH 6 0
BBX 7 18 0 -4
BITMAP
1E
1E
06
04
04
0C
0C
0C
08
08
18
18
18
10
10
30
F0
F0
ENDCHAR
STARTCHAR asciicircum
ENCODING 94
SWIDTH 633 0
DWIDTH 12 0
BBX 11 12 1 2
BITMAP
0100
0300
0300
0780
0F80
0C80
1C80
18C0
3040
7040
6060
C060
ENDCHAR
STARTCHAR underscore
ENCODING 95
SWIDTH 500 0
DWIDTH 10 0
BBX 8 2 1 -2
BITMAP
FF
FF
ENDCHAR
STARTCHAR grave
ENCODING 96
SWIDTH 572 0
DWIDTH 11 0
BBX 3 3 6 11
BITMAP
C0
40
60
ENDCHAR
STARTCHAR a
ENCODING 97
SWIDTH 608 0
DWIDTH 12 0
BBX 10 10 2 0
BITMAP
0FC0
1FC0
38C0
7180
6180
C380
C780
CF80
FD00
7300
ENDCHAR
STARTCHAR b
ENCODING 98
SWIDTH 608 0
DWIDTH 12 0
BBX 10 14 2 0
BITMAP
1800
1000
3000
3000
3380
2FC0
3CC0
78C0
70C0
6180
6380
4700
FE00
FC00
ENDCHAR
STARTCHAR c
ENCODING 99
SWIDTH 503 0
DWIDTH 10 0
BBX 9 10 2 0
BITMAP
0F80
3F00
7000
6000
C000
C000
C000
C200
FE00
7C00
ENDCHAR
STARTCHAR d
ENCODING 100
SWIDTH 608 0
DWIDTH 12 0
BBX 11 14 2 0
BITMAP
0060
0060
0040
00C0
07C0
1FC0
38C0
7080
6180
C380
C780
CF80
FD00
7300
ENDCHAR
STARTCHAR e
ENCODING 101
SWIDTH 529 0
DWIDTH 10 0
BBX 8 10 2 0
BITMAP
0F
3F
73
63
C6
F8
C1
C3
FF
7C
ENDCHAR
STARTCHAR f
ENCODING 102
SWIDTH 383 0
DWIDTH 7 0
BBX 9 19 2 -4
BITMAP
0780
0F80
1C00
1800
1800
7E00
7E00
3000
3000
3000
2000
6000
6000
6000
6000
6000
C000
C000
C000
ENDCHAR
STARTCHAR g
ENCODING 103
SWIDTH 608 0
DWIDTH 12 0
BBX 11 14 1 -4
BITMAP
07E0
0FE0
1C40
3040
30C0
61C0
62C0
6680
7D80
3980
0180
8300
FE00
7C00
ENDCHAR
STARTCHAR h
ENCODING 104
SWIDTH 620 0
DWIDTH 12 0
BBX 10 14 2 0
BITMAP
1800
1000
3000
3000
3380
37C0
2EC0
7CC0
78C0
7080
6180
4180
C180
C180
ENDCHAR
STARTCHAR i
ENCODING 105
SWIDTH 289 0
DWIDTH 5 0
BBX 5 14 2 0
BITMAP
18
18
00
00
30
30
30
60
60
60
60
40
C0
C0
ENDCHAR
STARTCHAR j
ENCODING 106
SWIDTH 325 0
DWIDTH 6 0
BBX 9 18 -1 -4
BITMAP
0180
0180
0000
0000
0300
0300
0300
0300
0200
0600
0600
0600
0600
0400
0C00
1C00
F800
F000
ENDCHAR
STARTCHAR k
ENCODING 107
SWIDTH 572 0
DWIDTH 11 0
BBX 10 14 2 0
BITMAP
1800
1000
3000
3000
31C0
3300
2600
6C00
7800
6C00
6C00
4600
C300
C380
ENDCHAR
STARTCHAR l
ENCODING 108
SWIDTH 289 0
DWIDTH 5 0
BBX 5 14 2 0
BITMAP
18
18
10
30
30
30
30
60
60
60
60
40
C0
C0
ENDCHAR
STARTCHAR m
ENCODING 109
SWIDTH 934 0
DWIDTH 18 0
BBX 16 10 2 0
BITMAP
338F
37DF
6EFB
7CF3
79E3
71C2
6186
E186
C106
C304
ENDCHAR
STARTCHAR n
ENCODING 110
SWIDTH 620 0
DWIDTH 12 0
BBX 10 10 2 0
BITMAP
3380
37C0
2EC0
7CC0
78C0
7080
6180
4180
C180
C180
ENDCHAR
STARTCHAR o
ENCODING 111
SWIDTH 566 0
DWIDTH 11 0
BBX 9 10 2 0
BITMAP
0F00
3F80
7180
6180
C180
C180
C180
C700
FE00
7C00
ENDCHAR
STARTCHAR p
ENCODING 112
SWIDTH 608 0
DWIDTH 12 0
BBX 11 14 1 -4
BITMAP
19C0
37E0
3E60
3C60
3860
30C0
61C0
6380
7F00
7C00
6000
C000
C000
C000
ENDCHAR
STARTCHAR q
ENCODING 113
SWIDTH 608 0
DWIDTH 12 0
BBX 10 14 2 -4
BITMAP
0FC0
1FC0
38C0
7180
6180
C380
C780
CF80
FD00
7300
0300
0300
0300
0600
ENDCHAR
STARTCHAR r
ENCODING 114
SWIDTH 478 0
DWIDTH 9 0
BBX 9 10 2 0
BITMAP
3180
3780
2C00
7800
7800
7000
6000
4000
C000
C000
ENDCHAR
STARTCHAR s
ENCODING 115
SWIDTH 489 0
DWIDTH 9 0
BBX 8 10 2 0
BITMAP
1E
3F
31
30
18
0C
06
86
FE
7C
ENDCHAR
STARTCHAR t
ENCODING 116
SWIDTH 383 0
DWIDTH 7 0
BBX 6 13 2 0
BITMAP
30
30
30
FC
FC
60
60
60
60
40
C0
F0
70
ENDCHAR
STARTCHAR u
ENCODING 117
SWIDTH 620 0
DWIDTH 12 0
BBX 10 10 2 0
BITMAP
70C0
60C0
6080
6180
6380
C780
CF80
DD00
FB00
7300
ENDCHAR
STARTCHAR v
ENCODING 118
SWIDTH 545 0
DWIDTH 10 0
BBX 9 10 3 0
BITMAP
C180
C300
C300
C600
4400
4C00
6800
7800
7000
6000
ENDCHAR
STARTCHAR w
ENCODING 119
SWIDTH 795 0
DWIDTH 15 0
BBX 14 10 2 0
BITMAP
C30C
C71C
C718
CD30
CD30
D960
5960
71C0
71C0
6180
ENDCHAR
STARTCHAR x
ENCODING 120
SWIDTH 541 0
DWIDTH 10 0
BBX 11 10 1 0
BITMAP
3060
18C0
0980
0F00
0600
0E00
1B00
3300
6180
C180
ENDCHAR
STARTCHAR y
ENCODING 121
SWIDTH 548 0
DWIDTH 10 0
BBX 10 14 2 -4
BITMAP
60C0
6180
6180
6300
6700
6600
3E00
3C00
3800
3800
3000
3000
6000
C000
ENDCHAR
STARTCHAR z
ENCODING 122
SWIDTH 536 0
DWIDTH 10 0
BBX 10 10 1 0
BITMAP
3FC0
3FC0
0380
0700
0E00
1C00
3800
7000
FF80
FF80
ENDCHAR
STARTCHAR braceleft
ENCODING 123
SWIDTH 325 0
DWIDTH 6 0
BBX 7 18 2 -4
BITMAP
0E
1C
18
10
10
10
30
30
E0
C0
60
60
60
60
C0
C0
E0
60
ENDCHAR
STARTCHAR bar
ENCODING 124
SWIDTH 233 0
DWIDTH 4 0
BBX 5 18 1 -4
BITMAP
08
18
10
10
10
10
30
20
20
20
20
60
40
40
40
40
C0
80
ENDCHAR
STARTCHAR braceright
ENCODING 125
SWIDTH 325 0
DWIDTH 6 0
BBX 7 18 0 -4
BITMAP
18
1C
04
0C
0C
08
18
08
0E
1C
18
30
30
30
30
30
E0
E0
ENDCHAR
STARTCHAR asciitilde
ENCODING 126
SWIDTH 633 0
DWIDTH 12 0
BBX 12 5 1 3
BITMAP
3810
7C30
4F20
C3E0
81C0
ENDCHAR
STARTCHAR space
ENCODING 160
SWIDTH 316 0
DWIDTH 6 0
BBX 0 0 0 0
BITMAP
ENDCHAR
STARTCHAR exclamdown
ENCODING 161
SWIDTH 193 0
DWIDTH 6 0
BBX 5 14 1 -4
BITMAP
18
18
00
00
30
30
20
60
60
60
60
40
C0
C0
ENDCHAR
STARTCHAR cent
ENCODING 162
SWIDTH 633 0
DWIDTH 12 0
BBX 8 14 4 0
BITMAP
04
0C
1F
3E
68
48
C8
D0
D0
D0
FE
7C
10
20
ENDCHAR
STARTCHAR sterling
ENCODING 163
SWIDTH 633 0
DWIDTH 12 0
BBX 11 14 2 0
BITMAP
03E0
07E0
0E20
0C00
0C00
0800
3E00
7E00
1800
1800
1000
2000
FF00
FF00
ENDCHAR
STARTCHAR currency
ENCODING 164
SWIDTH 633 0
DWIDTH 12 0
BBX 13 12 1 1
BITMAP
3018
3F38
1FF0
0CE0
1860
1060
1060
1040
18C0
3FC0
4F60
8020
ENDCHAR
STARTCHAR yen
ENCODING 165
SWIDTH 633 0
DWIDTH 12 0
BBX 11 14 3 0
BITMAP
C060
60C0
3180
3300
1E00
1C00
7F00
FF00
1800
FE00
FE00
1000
3000
3000
ENDCHAR
STARTCHAR brokenbar
ENCODING 166
SWIDTH 233 0
DWIDTH 4 0
BBX 5 18 1 -4
BITMAP
18
18
10
10
10
10
30
00
00
00
00
60
40
40
40
C0
C0
80
ENDCHAR
STARTCHAR section
ENCODING 167
SWIDTH 633 0
DWIDTH 12 0
BBX 10 18 2 -4
BITMAP
07C0
1FC0
1840
3000
3000
1800
3E00
3380
6180
6080
3980
1F00
0700
0100
0100
8300
FF00
7C00
ENDCHAR
STARTCHAR dieresis
ENCODING 168
SWIDTH 566 0
DWIDTH 11 0
BBX 6 2 5 12
BITMAP
CC
CC
ENDCHAR
STARTCHAR copyright
ENCODING 169
SWIDTH 858 0
DWIDTH 16 0
BBX 13 14 3 0
BITMAP
0F80
3FE0
7070
6398
CFC8
8C48
9808
9008
9888
DF88
6F18
7070
3FE0
0F80
ENDCHAR
STARTCHAR ordfeminine
ENCODING 170
SWIDTH 392 0
DWIDTH 7 0
BBX 7 8 2 6
BITMAP
18
3E
66
C6
CE
D4
EC
CC
ENDCHAR
STARTCHAR guillemotleft
ENCODING 171
SWIDTH 527 0
DWIDTH 10 0
BBX 9 10 2 0
BITMAP
0880
1980
3300
6600
DC00
CC00
4E00
6600
2600
3300
ENDCHAR
STARTCHAR logicalnot
ENCODING 172
SWIDTH 633 0
DWIDTH 12 0
BBX 11 5 2 3
BITMAP
FFE0
FFE0
0060
0040
0040
ENDCHAR
STARTCHAR hyphen
ENCODING 173
SWIDTH 313 0
DWIDTH 6 0
BBX 4 2 2 5
BITMAP
F0
F0
ENDCHAR
STARTCHAR registered
ENCODING 174
SWIDTH 633 0
DWIDTH 12 0
BBX 7 9 4 5
BITMAP
38
7C
DE
9A
B2
AA
C6
7C
38
ENDCHAR
STARTCHAR macron
ENCODING 175
SWIDTH 566 0
DWIDTH 11 0
BBX 6 2 5 12
BITMAP
FC
FC
ENDCHAR
STARTCHAR degree
ENCODING 176
SWIDTH 269 0
DWIDTH 5 0
BBX 3 4 3 10
BITMAP
60
A0
A0
60
ENDCHAR
STARTCHAR plusminus
ENCODING 177
SWIDTH 633 0
DWIDTH 12 0
BBX 12 12 1 0
BITMAP
0100
0300
0200
7FF0
7FF0
0200
0600
0600
0600
0000
FFE0
FFE0
ENDCHAR
STARTCHAR twosuperior
ENCODING 178
SWIDTH 392 0
DWIDTH 7 0
BBX 6 8 -10 6
BITMAP
38
64
04
08
10
20
40
F8
ENDCHAR
STARTCHAR threesuperior
ENCODING 179
SWIDTH 392 0
DWIDTH 7 0
BBX 6 8 -10 6
BITMAP
38
04
08
70
08
08
18
F0
ENDCHAR
STARTCHAR acute
ENCODING 180
SWIDTH 566 0
DWIDTH 11 0
BBX 5 3 7 11
BITMAP
38
60
C0
ENDCHAR
STARTCHAR mu
ENCODING 181
SWIDTH 627 0
DWIDTH 12 0
BBX 11 14 1 -4
BITMAP
3060
3060
3040
30C0
20C0
21C0
63C0
6680
7D80
7980
4000
C000
C000
C000
ENDCHAR
STARTCHAR paragraph
ENCODING 182
SWIDTH 633 0
DWIDTH 12 0
BBX 8 18 3 -4
BITMAP
7F
FF
F9
FA
FA
7A
7A
12
16
14
14
14
34
24
28
28
28
68
ENDCHAR
STARTCHAR periodcentered
ENCODING 183
SWIDTH 316 0
DWIDTH 12 0
BBX 3 2 6 5
BITMAP
E0
E0
ENDCHAR
STARTCHAR cedilla
ENCODING 184
SWIDTH 566 0
DWIDTH 11 0
BBX 3 4 4 -4
BITMAP
60
60
20
C0
ENDCHAR
STARTCHAR onesuperior
ENCODING 185
SWIDTH 392 0
DWIDTH 7 0
BBX 3 8 -11 6
BITMAP
E0
20
40
40
40
40
C0
80
ENDCHAR
STARTCHAR ordmasculine
ENCODING 186
SWIDTH 392 0
DWIDTH 7 0
BBX 7 8 2 6
BITMAP
1E
3E
62
C2
C6
CC
FC
70
ENDCHAR
STARTCHAR guillemotright
ENCODING 187
SWIDTH 527 0
DWIDTH 10 0
BBX 9 10 1 0
BITMAP
6200
3600
3300
3B80
1980
1F80
3300
6600
CC00
8800
ENDCHAR
STARTCHAR onequarter
ENCODING 188
SWIDTH 865 0
DWIDTH 17 0
BBX 14 14 7 0
BITMAP
E00C
2018
4030
4060
40C0
4180
C10C
821C
0638
0C28
1848
30FC
6008
C010
ENDCHAR
STARTCHAR onehalf
ENCODING 189
SWIDTH 865 0
DWIDTH 17 0
BBX 14 14 7 0
BITMAP
E00C
2018
4030
4060
40C0
4180
C138
8264
0604
0C08
1810
3020
6040
C0F8
ENDCHAR
STARTCHAR threequarters
ENCODING 190
SWIDTH 865 0
DWIDTH 17 0
BBX 15 14 8 0
BITMAP
3806
040C
0818
7030
0860
08C0
1886
F10E
031C
0614
0C24
187E
3004
6008
ENDCHAR
STARTCHAR questiondown
ENCODING 191
SWIDTH 464 0
DWIDTH 9 0
BBX 8 14 1 -4
BITMAP
03
06
00
06
06
0C
18
30
60
C0
C0
C2
FE
7C
ENDCHAR
STARTCHAR Agrave
ENCODING 192
SWIDTH 687 0
DWIDTH 13 0
BBX 13 18 0 0
BITMAP
00C0
0040
0060
0000
00C0
01E0
01E0
0360
0260
0660
0C70
0C30
1830
1FF0
3FF0
2038
6018
C018
ENDCHAR
STARTCHAR Aacute
ENCODING 193
SWIDTH 687 0
DWIDTH 13 0
BBX 13 18 0 0
BITMAP
0038
0060
00C0
0000
00C0
01E0
01E0
0360
0260
0660
0C70
0C30
1830
1FF0
3FF0
2038
6018
C018
ENDCHAR
STARTCHAR Acircumflex
ENCODING 194
SWIDTH 687 0
DWIDTH 13 0
BBX 13 18 0 0
BITMAP
00E0
01A0
0330
0000
00C0
01E0
01E0
0360
0260
0660
0C70
0C30
1830
1FF0
3FF0
2038
6018
C018
ENDCHAR
STARTCHAR Atilde
ENCODING 195
SWIDTH 687 0
DWIDTH 13 0
BBX 13 17 0 0
BITMAP
0190
02E0
0000
00C0
01E0
01E0
0360
0260
0660
0C70
0C30
1830
1FF0
3FF0
2038
6018
C018
ENDCHAR
STARTCHAR Adieresis
ENCODING 196
SWIDTH 687 0
DWIDTH 13 0
BBX 13 17 0 0
BITMAP
0330
0330
0000
00C0
01E0
01E0
0360
0260
0660
0C70
0C30
1830
1FF0
3FF0
2038
6018
C018
ENDCHAR
STARTCHAR Aring
ENCODING 197
SWIDTH 687 0
DWIDTH 13 0
BBX 13 18 0 0
BITMAP
00E0
00A0
00E0
0000
00C0
01E0
01E0
0360
0260
0660
0C70
0C30
1830
1FF0
3FF0
2038
6018
C018
ENDCHAR
STARTCHAR AE
ENCODING 198
SWIDTH 893 0
DWIDTH 17 0
BBX 19 14 0 0
BITMAP
003FE0
007FE0
007800
00F000
01F000
03BF80
033F80
063000
0FE000
1FE000
306000
306000
607F80
C0FF80
ENDCHAR
STARTCHAR Ccedilla
ENCODING 199
SWIDTH 679 0
DWIDTH 13 0
BBX 13 18 2 -4
BITMAP
03F0
0FF8
1C08
3800
7000
6000
E000
C000
C000
C000
C000
6020
7FE0
1F00
0800
0C00
0400
1800
ENDCHAR
STARTCHAR Egrave
ENCODING 200
SWIDTH 547 0
DWIDTH 10 0
BBX 10 18 2 0
BITMAP
0C00
0400
0600
0000
1FC0
3FC0
3000
3000
3000
2000
7F00
7F00
6000
6000
6000
C000
FF00
FF00
ENDCHAR
STARTCHAR Eacute
ENCODING 201
SWIDTH 547 0
DWIDTH 10 0
BBX 10 18 2 0
BITMAP
0380
0600
0C00
0000
1FC0
3FC0
3000
3000
3000
2000
7F00
7F00
6000
6000
6000
C000
FF00
FF00
ENDCHAR
STARTCHAR Ecircumflex
ENCODING 202
SWIDTH 547 0
DWIDTH 10 0
BBX 10 18 2 0
BITMAP
0700
0D00
1980
0000
1FC0
3FC0
3000
3000
3000
2000
7F00
7F00
6000
6000
6000
C000
FF00
FF00
ENDCHAR
STARTCHAR Edieresis
ENCODING 203
SWIDTH 547 0
DWIDTH 10 0
BBX 10 17 2 0
BITMAP
1980
1980
0000
1FC0
3FC0
3000
3000
3000
2000
7F00
7F00
6000
6000
6000
C000
FF00
FF00
ENDCHAR
STARTCHAR Igrave
ENCODING 204
SWIDTH 289 0
DWIDTH 5 0
BBX 5 18 2 0
BITMAP
30
10
18
00
18
18
10
30
30
30
30
60
60
60
60
40
C0
C0
ENDCHAR
STARTCHAR Iacute
ENCODING 205
SWIDTH 289 0
DWIDTH 5 0
BBX 7 18 2 0
BITMAP
0E
18
30
00
18
18
10
30
30
30
30
60
60
60
60
40
C0
C0
ENDCHAR
STARTCHAR Icircumflex
ENCODING 206
SWIDTH 289 0
DWIDTH 5 0
BBX 7 18 2 0
BITMAP
1C
34
66
00
18
18
10
30
30
30
30
60
60
60
60
40
C0
C0
ENDCHAR
STARTCHAR Idieresis
ENCODING 207
SWIDTH 289 0
DWIDTH 5 0
BBX 7 17 2 0
BITMAP
66
66
00
18
18
10
30
30
30
30
60
60
60
60
40
C0
C0
ENDCHAR
STARTCHAR Eth
ENCODING 208
SWIDTH 743 0
DWIDTH 14 0
BBX 14 14 1 0
BITMAP
1FF0
1FF8
183C
180C
180C
300C
FE0C
FE0C
3018
3018
2030
60E0
7FC0
7F80
ENDCHAR
STARTCHAR Ntilde
ENCODING 209
SWIDTH 741 0
DWIDTH 14 0
BBX 13 17 2 0
BITMAP
0320
05C0
0000
1818
3818
3C18
3C10
2C30
2630
6630
6330
6320
61A0
41E0
C1E0
C0E0
C0C0
ENDCHAR
STARTCHAR Ograve
ENCODING 210
SWIDTH 777 0
DWIDTH 15 0
BBX 13 18 2 0
BITMAP
0300
0100
0180
0000
03E0
0FF0
1C38
3018
7018
6018
C018
C018
C018
C030
E070
60E0
7FC0
1F00
ENDCHAR
STARTCHAR Oacute
ENCODING 211
SWIDTH 777 0
DWIDTH 15 0
BBX 13 18 2 0
BITMAP
00E0
0180
0300
0000
03E0
0FF0
1C38
3018
7018
6018
C018
C018
C018
C030
E070
60E0
7FC0
1F00
ENDCHAR
STARTCHAR Ocircumflex
ENCODING 212
SWIDTH 777 0
DWIDTH 15 0
BBX 13 18 2 0
BITMAP
01C0
0340
0660
0000
03E0
0FF0
1C38
3018
7018
6018
C018
C018
C018
C030
E070
60E0
7FC0
1F00
ENDCHAR
STARTCHAR Otilde
ENCODING 213
SWIDTH 777 0
DWIDTH 15 0
BBX 13 17 2 0
BITMAP
0320
05C0
0000
03E0
0FF0
1C38
3018
7018
6018
C018
C018
C018
C030
E070
60E0
7FC0
1F00
ENDCHAR
STARTCHAR Odieresis
ENCODING 214
SWIDTH 777 0
DWIDTH 15 0
BBX 13 17 2 0
BITMAP
0660
0660
0000
03E0
0FF0
1C38
3018
7018
6018
C018
C018
C018
C030
E070
60E0
7FC0
1F00
ENDCHAR
STARTCHAR multiply
ENCODING 215
SWIDTH 633 0
DWIDTH 12 0
BBX 13 12 1 0
BITMAP
2008
3018
1860
0CC0
0580
0700
0700
0F80
19C0
30C0
E060
8060
ENDCHAR
STARTCHAR Oslash
ENCODING 216
SWIDTH 777 0
DWIDTH 15 0
BBX 16 14 3 0
BITMAP
01F3
07FE
0E1C
181C
383C
306C
60CC
618C
630C
6618
7C38
3870
3FE0
EF80
ENDCHAR
STARTCHAR Ugrave
ENCODING 217
SWIDTH 693 0
DWIDTH 13 0
BBX 12 18 2 0
BITMAP
0600
0200
0300
0000
3030
3030
6030
6020
6060
6060
6060
C060
C0C0
C0C0
C0C0
E180
FF80
7E00
ENDCHAR
STARTCHAR Uacute
ENCODING 218
SWIDTH 693 0
DWIDTH 13 0
BBX 12 18 2 0
BITMAP
01C0
0300
0600
0000
3030
3030
6030
6020
6060
6060
6060
C060
C0C0
C0C0
C0C0
E180
FF80
7E00
ENDCHAR
STARTCHAR Ucircumflex
ENCODING 219
SWIDTH 693 0
DWIDTH 13 0
BBX 12 18 2 0
BITMAP
0380
0680
0CC0
0000
3030
3030
6030
6020
6060
6060
6060
C060
C0C0
C0C0
C0C0
E180
FF80
7E00
ENDCHAR
STARTCHAR Udieresis
ENCODING 220
SWIDTH 693 0
DWIDTH 13 0
BBX 12 17 2 0
BITMAP
0CC0
0CC0
0000
3030
3030
6030
6020
6060
6060
6060
C060
C0C0
C0C0
C0C0
E180
FF80
7E00
ENDCHAR
STARTCHAR Yacute
ENCODING 221
SWIDTH 608 0
DWIDTH 12 0
BBX 11 18 3 0
BITMAP
0380
0600
0C00
0000
C0E0
60C0
6180
7380
3700
3600
1C00
1800
1800
1800
1800
3000
3000
3000
ENDCHAR
STARTCHAR Thorn
ENCODING 222
SWIDTH 575 0
DWIDTH 11 0
BBX 10 14 2 0
BITMAP
1800
3000
3000
3F80
3FC0
30C0
60C0
61C0
6380
7F00
7C00
C000
C000
C000
ENDCHAR
STARTCHAR germandbls
ENCODING 223
SWIDTH 595 0
DWIDTH 11 0
BBX 10 19 1 -4
BITMAP
0780
0FC0
18C0
1880
1980
1200
3600
3600
3700
3380
20C0
60C0
60C0
6FC0
6F00
4000
C000
C000
C000
ENDCHAR
STARTCHAR agrave
ENCODING 224
SWIDTH 608 0
DWIDTH 12 0
BBX 10 14 2 0
BITMAP
0600
0200
0300
0000
0FC0
1FC0
38C0
7180
6180
C380
C780
CF80
FD00
7300
ENDCHAR
STARTCHAR aacute
ENCODING 225
SWIDTH 608 0
DWIDTH 12 0
BBX 10 14 2 0
BITMAP
01C0
0300
0600
0000
0FC0
1FC0
38C0
7180
6180
C380
C780
CF80
FD00
7300
ENDCHAR
STARTCHAR acircumflex
ENCODING 226
SWIDTH 608 0
DWIDTH 12 0
BBX 10 14 2 0
BITMAP
0380
0680
0CC0
0000
0FC0
1FC0
38C0
7180
6180
C380
C780
CF80
FD00
7300
ENDCHAR
STARTCHAR atilde
ENCODING 227
SWIDTH 608 0
DWIDTH 12 0
BBX 10 13 2 0
BITMAP
0640
0B80
0000
0FC0
1FC0
38C0
7180
6180
C380
C780
CF80
FD00
7300
ENDCHAR
STARTCHAR adieresis
ENCODING 228
SWIDTH 608 0
DWIDTH 12 0
BBX 10 13 2 0
BITMAP
0CC0
0CC0
0000
0FC0
1FC0
38C0
7180
6180
C380
C780
CF80
FD00
7300
ENDCHAR
STARTCHAR aring
ENCODING 229
SWIDTH 608 0
DWIDTH 12 0
BBX 10 14 2 0
BITMAP
0380
0280
0380
0000
0FC0
1FC0
38C0
7180
6180
C380
C780
CF80
FD00
7300
ENDCHAR
STARTCHAR ae
ENCODING 230
SWIDTH 893 0
DWIDTH 17 0
BBX 15 10 2 0
BITMAP
07DE
1FFE
38E6
61C6
638C
C3F0
C782
CF86
FCFE
78F8
ENDCHAR
STARTCHAR ccedilla
ENCODING 231
SWIDTH 503 0
DWIDTH 10 0
BBX 9 14 2 -4
BITMAP
0F80
3F00
7000
6000
C000
C000
C000
C200
FE00
7C00
2000
3000
1000
6000
ENDCHAR
STARTCHAR egrave
ENCODING 232
SWIDTH 529 0
DWIDTH 10 0
BBX 8 14 2 0
BITMAP
0C
04
06
00
0F
3F
73
63
C6
F8
C1
C3
FF
7C
ENDCHAR
STARTCHAR eacute
ENCODING 233
SWIDTH 529 0
DWIDTH 10 0
BBX 9 14 2 0
BITMAP
0380
0600
0C00
0000
0F00
3F00
7300
6300
C600
F800
C100
C300
FF00
7C00
ENDCHAR
STARTCHAR ecircumflex
ENCODING 234
SWIDTH 529 0
DWIDTH 10 0
BBX 9 14 2 0
BITMAP
0700
0D00
1980
0000
0F00
3F00
7300
6300
C600
F800
C100
C300
FF00
7C00
ENDCHAR
STARTCHAR edieresis
ENCODING 235
SWIDTH 529 0
DWIDTH 10 0
BBX 9 13 2 0
BITMAP
1980
1980
0000
0F00
3F00
7300
6300
C600
F800
C100
C300
FF00
7C00
ENDCHAR
STARTCHAR igrave
ENCODING 236
SWIDTH 289 0
DWIDTH 5 0
BBX 5 14 2 0
BITMAP
30
10
18
00
30
30
20
60
60
60
60
40
C0
C0
ENDCHAR
STARTCHAR iacute
ENCODING 237
SWIDTH 289 0
DWIDTH 5 0
BBX 7 14 2 0
BITMAP
0E
18
30
00
30
30
20
60
60
60
60
40
C0
C0
ENDCHAR
STARTCHAR icircumflex
ENCODING 238
SWIDTH 289 0
DWIDTH 5 0
BBX 7 14 2 0
BITMAP
1C
34
66
00
30
30
20
60
60
60
60
40
C0
C0
ENDCHAR
STARTCHAR idieresis
ENCODING 239
SWIDTH 289 0
DWIDTH 5 0
BBX 7 13 2 0
BITMAP
66
66
00
30
30
20
60
60
60
60
40
C0
C0
ENDCHAR
STARTCHAR eth
ENCODING 240
SWIDTH 556 0
DWIDTH 11 0
BBX 9 14 2 0
BITMAP
3F00
3F80
0F00
0D80
0F80
3F80
7180
6180
C180
C180
C100
E700
FE00
7C00
ENDCHAR
STARTCHAR ntilde
ENCODING 241
SWIDTH 620 0
DWIDTH 12 0
BBX 10 13 2 0
BITMAP
0640
0B80
0000
3380
37C0
2EC0
7CC0
78C0
7080
6180
4180
C180
C180
ENDCHAR
STARTCHAR ograve
ENCODING 242
SWIDTH 566 0
DWIDTH 11 0
BBX 9 14 2 0
BITMAP
0600
0200
0300
0000
0F00
3F80
7180
6180
C180
C180
C180
C700
FE00
7C00
ENDCHAR
STARTCHAR oacute
ENCODING 243
SWIDTH 566 0
DWIDTH 11 0
BBX 10 14 2 0
BITMAP
01C0
0300
0600
0000
0F00
3F80
7180
6180
C180
C180
C180
C700
FE00
7C00
ENDCHAR
STARTCHAR ocircumflex
ENCODING 244
SWIDTH 566 0
DWIDTH 11 0
BBX 9 14 2 0
BITMAP
0700
0D00
1980
0000
0F00
3F80
7180
6180
C180
C180
C180
C700
FE00
7C00
ENDCHAR
STARTCHAR otilde
ENCODING 245
SWIDTH 566 0
DWIDTH 11 0
BBX 10 13 2 0
BITMAP
0640
0B80
0000
0F00
3F80
7180
6180
C180
C180
C180
C700
FE00
7C00
ENDCHAR
STARTCHAR odieresis
ENCODING 246
SWIDTH 566 0
DWIDTH 11 0
BBX 10 13 2 0
BITMAP
0CC0
0CC0
0000
0F00
3F80
7180
6180
C180
C180
C180
C700
FE00
7C00
ENDCHAR
STARTCHAR divide
ENCODING 247
SWIDTH 633 0
DWIDTH 12 0
BBX 11 10 2 0
BITMAP
0600
0600
0000
0000
FFE0
FFE0
0000
0000
0C00
0C00
ENDCHAR
STARTCHAR oslash
ENCODING 248
SWIDTH 566 0
DWIDTH 11 0
BBX 11 10 3 0
BITMAP
07E0
1FC0
39C0
33C0
66C0
6CC0
78C0
7380
7F00
FE00
ENDCHAR
STARTCHAR ugrave
ENCODING 249
SWIDTH 620 0
DWIDTH 12 0
BBX 10 14 2 0
BITMAP
0600
0200
0300
0000
70C0
60C0
6080
6180
6380
C780
CF80
DD00
FB00
7300
ENDCHAR
STARTCHAR uacute
ENCODING 250
SWIDTH 620 0
DWIDTH 12 0
BBX 10 14 2 0
BITMAP
01C0
0300
0600
0000
70C0
60C0
6080
6180
6380
C780
CF80
DD00
FB00
7300
ENDCHAR
STARTCHAR ucircumflex
ENCODING 251
SWIDTH 620 0
DWIDTH 12 0
BBX 10 14 2 0
BITMAP
0700
0D00
1980
0000
70C0
60C0
6080
6180
6380
C780
CF80
DD00
FB00
7300
ENDCHAR
STARTCHAR udieresis
ENCODING 252
SWIDTH 620 0
DWIDTH 12 0
BBX 10 13 2 0
BITMAP
0CC0
0CC0
0000
70C0
60C0
6080
6180
6380
C780
CF80
DD00
FB00
7300
ENDCHAR
STARTCHAR yacute
ENCODING 253
SWIDTH 548 0
DWIDTH 10 0
BBX 10 18 2 -4
BITMAP
0380
0600
0C00
0000
60C0
6180
6180
6300
6700
6600
3E00
3C00
3800
3800
3000
3000
6000
C000
ENDCHAR
STARTCHAR thorn
ENCODING 254
SWIDTH 608 0
DWIDTH 12 0
BBX 11 18 1 -4
BITMAP
1800
1800
1800
1800
31C0
37E0
3E60
3C60
3860
30C0
61C0
6380
7F00
7C00
6000
C000
C000
C000
ENDCHAR
STARTCHAR ydieresis
ENCODING 255
SWIDTH 548 0
DWIDTH 10 0
BBX 10 17 2 -4
BITMAP
1980
1980
0000
60C0
6180
6180
6300
6700
6600
3E00
3C00
3800
3800
3000
3000
6000
C000
ENDCHAR
STARTCHAR uni0400
ENCODING 1024
SWIDTH 547 0
DWIDTH 10 0
BBX 10 18 2 0
BITMAP
0C00
0400
0600
0000
1FC0
3FC0
3000
3000
3000
2000
7F00
7F00
6000
6000
6000
C000
FF00
FF00
ENDCHAR
STARTCHAR afii10023
ENCODING 1025
SWIDTH 547 0
DWIDTH 10 0
BBX 10 17 2 0
BITMAP
1980
1980
0000
1FC0
3FC0
3000
3000
3000
2000
7F00
7F00
6000
6000
6000
C000
FF00
FF00
ENDCHAR
STARTCHAR afii10051
ENCODING 1026
SWIDTH 894 0
DWIDTH 17 0
BBX 14 14 3 0
BITMAP
FFF0
FFF0
0600
0600
0600
05E0
0FF8
0E1C
0C0C
0C0C
0C0C
1818
18F8
18E0
ENDCHAR
STARTCHAR afii10052
ENCODING 1027
SWIDTH 526 0
DWIDTH 10 0
BBX 10 18 2 0
BITMAP
0380
0600
0C00
0000
1FC0
3FC0
3000
3000
3000
2000
6000
6000
6000
6000
6000
C000
C000
C000
ENDCHAR
STARTCHAR afii10053
ENCODING 1028
SWIDTH 684 0
DWIDTH 13 0
BBX 13 14 2 0
BITMAP
03F0
0FF8
1C08
3800
7000
6000
FF80
FF00
C000
C000
C000
6020
7FE0
1F00
ENDCHAR
STARTCHAR afii10054
ENCODING 1029
SWIDTH 553 0
DWIDTH 11 0
BBX 11 14 1 0
BITMAP
0FC0
1FE0
3840
3000
3000
1800
0E00
0700
0380
0180
0180
8380
FF00
3E00
ENDCHAR
STARTCHAR afii10055
ENCODING 1030
SWIDTH 289 0
DWIDTH 5 0
BBX 5 14 2 0
BITMAP
18
18
10
30
30
30
30
60
60
60
60
40
C0
C0
ENDCHAR
STARTCHAR afii10056
ENCODING 1031
SWIDTH 289 0
DWIDTH 5 0
BBX 7 17 2 0
BITMAP
66
66
00
18
18
10
30
30
30
30
60
60
60
60
40
C0
C0
ENDCHAR
STARTCHAR afii10057
ENCODING 1032
SWIDTH 408 0
DWIDTH 8 0
BBX 9 18 0 -4
BITMAP
0180
0180
0180
0300
0300
0300
0300
0300
0200
0600
0600
0600
0600
0600
0C00
0C00
F800
F000
ENDCHAR
STARTCHAR afii10058
ENCODING 1033
SWIDTH 947 0
DWIDTH 18 0
BBX 17 14 1 0
BITMAP
07F800
0FF800
0C1800
0C3000
0C3000
0C3000
183C00
183F00
182380
186180
186180
306380
F07F00
C0FE00
ENDCHAR
STARTCHAR afii10059
ENCODING 1034
SWIDTH 947 0
DWIDTH 18 0
BBX 16 14 2 0
BITMAP
1830
3030
3030
3060
3060
3060
7FF8
7FFE
6047
60C3
60C3
C0C7
C0FE
C1FC
ENDCHAR
STARTCHAR afii10060
ENCODING 1035
SWIDTH 894 0
DWIDTH 17 0
BBX 14 14 3 0
BITMAP
FFF0
FFF0
0600
0600
0600
05E0
0FF8
0E1C
0C0C
0C0C
0C0C
180C
1818
1818
ENDCHAR
STARTCHAR afii10061
ENCODING 1036
SWIDTH 631 0
DWIDTH 12 0
BBX 12 18 2 0
BITMAP
00E0
0180
0300
0000
1830
3060
30C0
3180
3300
3600
6C00
7C00
6E00
6600
6300
C380
C180
C0C0
ENDCHAR
STARTCHAR afii10062
ENCODING 1038
SWIDTH 684 0
DWIDTH 13 0
BBX 13 18 2 0
BITMAP
0660
07C0
0380
0000
6018
6030
6030
3060
30C0
30C0
1980
1900
1B00
0E00
0C00
1800
F000
E000
ENDCHAR
STARTCHAR afii10145
ENCODING 1039
SWIDTH 736 0
DWIDTH 14 0
BBX 13 17 2 -3
BITMAP
1818
3018
3018
3030
3030
3030
6030
6030
6020
6060
6060
C060
FFE0
FFC0
0C00
0C00
0C00
ENDCHAR
STARTCHAR afii10017
ENCODING 1040
SWIDTH 684 0
DWIDTH 13 0
BBX 13 14 0 0
BITMAP
00C0
01E0
01E0
0360
0260
0660
0C70
0C30
1830
1FF0
3FF0
2038
6018
C018
ENDCHAR
STARTCHAR afii10018
ENCODING 1041
SWIDTH 578 0
DWIDTH 11 0
BBX 10 14 2 0
BITMAP
1FC0
3FC0
3000
3000
3000
3000
7C00
7F00
6380
6180
6180
C380
FF00
FE00
ENDCHAR
STARTCHAR afii10019
ENCODING 1042
SWIDTH 578 0
DWIDTH 11 0
BBX 10 14 2 0
BITMAP
1F80
3FC0
30C0
30C0
3080
3380
7E00
7F00
6380
6180
6180
C380
FF00
FE00
ENDCHAR
STARTCHAR afii10020
ENCODING 1043
SWIDTH 526 0
DWIDTH 10 0
BBX 10 14 2 0
BITMAP
1FC0
3FC0
3000
3000
3000
2000
6000
6000
6000
6000
6000
C000
C000
C000
ENDCHAR
STARTCHAR afii10021
ENCODING 1044
SWIDTH 736 0
DWIDTH 14 0
BBX 15 17 0 -3
BITMAP
03FE
07FE
0606
060C
060C
060C
0C0C
0C0C
0C08
1818
1818
3018
7FFC
7FFC
C018
C018
C018
ENDCHAR
STARTCHAR afii10022
ENCODING 1045
SWIDTH 526 0
DWIDTH 10 0
BBX 10 14 2 0
BITMAP
1FC0
3FC0
3000
3000
3000
2000
7F00
7F00
6000
6000
6000
C000
FF00
FF00
ENDCHAR
STARTCHAR afii10024
ENCODING 1046
SWIDTH 947 0
DWIDTH 18 0
BBX 20 14 0 0
BITMAP
0C1830
0C3060
0630C0
063180
063300
036600
036C00
03FC00
066E00
0C6600
186300
30C380
60C180
C0C0C0
ENDCHAR
STARTCHAR afii10025
ENCODING 1047
SWIDTH 526 0
DWIDTH 10 0
BBX 10 14 1 0
BITMAP
0F80
3FC0
20C0
00C0
0080
0380
1E00
1F00
0380
0180
0180
8380
FF00
7E00
ENDCHAR
STARTCHAR afii10026
ENCODING 1048
SWIDTH 736 0
DWIDTH 14 0
BBX 13 14 2 0
BITMAP
1818
3038
3078
30D0
31B0
21B0
6330
6630
6C20
6C60
5860
F060
E060
C0C0
ENDCHAR
STARTCHAR afii10027
ENCODING 1049
SWIDTH 736 0
DWIDTH 14 0
BBX 13 18 2 0
BITMAP
0660
07C0
0380
0000
1818
3038
3078
30D0
31B0
21B0
6330
6630
6C20
6C60
5860
F060
E060
C0C0
ENDCHAR
STARTCHAR afii10028
ENCODING 1050
SWIDTH 631 0
DWIDTH 12 0
BBX 12 14 2 0
BITMAP
1830
3060
30C0
3180
3300
3600
6C00
7C00
6E00
6600
6300
C380
C180
C0C0
ENDCHAR
STARTCHAR afii10029
ENCODING 1051
SWIDTH 736 0
DWIDTH 14 0
BBX 14 14 1 0
BITMAP
07FC
0FFC
0C0C
0C18
0C18
0C18
1818
1818
1810
1830
1830
3030
F030
C060
ENDCHAR
STARTCHAR afii10030
ENCODING 1052
SWIDTH 842 0
DWIDTH 16 0
BBX 15 14 2 0
BITMAP
180E
3C0E
3C1E
3C1C
3C3C
2C6C
644C
66CC
6688
6798
4718
C718
C618
C030
ENDCHAR
STARTCHAR afii10031
ENCODING 1053
SWIDTH 736 0
DWIDTH 14 0
BBX 13 14 2 0
BITMAP
1818
3018
3018
3030
3030
3030
7FF0
7FF0
6020
6060
6060
C060
C060
C0C0
ENDCHAR
STARTCHAR afii10032
ENCODING 1054
SWIDTH 789 0
DWIDTH 15 0
BBX 13 14 2 0
BITMAP
03E0
0FF0
1C38
3018
7018
6018
C018
C018
C018
C030
E070
60E0
7FC0
1F00
ENDCHAR
STARTCHAR afii10033
ENCODING 1055
SWIDTH 736 0
DWIDTH 14 0
BBX 13 14 2 0
BITMAP
1FF8
3FF8
3018
3030
3030
3030
6030
6030
6020
6060
6060
C060
C060
C0C0
ENDCHAR
STARTCHAR afii10034
ENCODING 1056
SWIDTH 578 0
DWIDTH 11 0
BBX 10 14 2 0
BITMAP
1F80
3FC0
30C0
30C0
30C0
2180
6380
7F00
7C00
6000
6000
C000
C000
C000
ENDCHAR
STARTCHAR afii10035
ENCODING 1057
SWIDTH 684 0
DWIDTH 13 0
BBX 13 14 2 0
BITMAP
03F0
0FF8
1C08
3800
7000
6000
E000
C000
C000
C000
C000
6020
7FE0
1F00
ENDCHAR
STARTCHAR afii10036
ENCODING 1058
SWIDTH 631 0
DWIDTH 12 0
BBX 12 14 3 0
BITMAP
FFF0
FFF0
0600
0600
0C00
0C00
0C00
0C00
0800
1800
1800
1800
1800
3000
ENDCHAR
STARTCHAR afii10037
ENCODING 1059
SWIDTH 684 0
DWIDTH 13 0
BBX 13 14 2 0
BITMAP
6018
6030
6030
3060
30C0
30C0
1980
1900
1B00
0E00
0C00
1800
F000
E000
ENDCHAR
STARTCHAR afii10038
ENCODING 1060
SWIDTH 894 0
DWIDTH 17 0
BBX 15 14 2 0
BITMAP
00C0
00C0
0FF8
3FFC
718E
6186
C186
C306
C30C
E31C
7FF8
3FE0
0600
0600
ENDCHAR
STARTCHAR afii10039
ENCODING 1061
SWIDTH 631 0
DWIDTH 12 0
BBX 14 14 0 0
BITMAP
181C
0C18
0C30
0660
06C0
0380
0300
0380
0780
0DC0
18C0
30E0
6060
C070
ENDCHAR
STARTCHAR afii10040
ENCODING 1062
SWIDTH 736 0
DWIDTH 14 0
BBX 13 17 2 -3
BITMAP
1818
3018
3018
3030
3030
3030
6030
6030
6020
6060
6060
C060
FFF0
FFF0
0060
0060
0060
ENDCHAR
STARTCHAR afii10041
ENCODING 1063
SWIDTH 684 0
DWIDTH 13 0
BBX 11 14 3 0
BITMAP
6060
6060
C060
C0C0
C0C0
C0C0
E1C0
7FC0
1E80
0180
0180
0180
0180
0300
ENDCHAR
STARTCHAR afii10042
ENCODING 1064
SWIDTH 947 0
DWIDTH 18 0
BBX 17 14 2 0
BITMAP
186180
306180
304180
30C300
30C300
30C300
60C300
618300
618200
618600
618600
C10600
FFFE00
FFFC00
ENDCHAR
STARTCHAR afii10043
ENCODING 1065
SWIDTH 947 0
DWIDTH 18 0
BBX 17 17 2 -3
BITMAP
186180
306180
304180
30C300
30C300
30C300
60C300
618300
618200
618600
618600
C10600
FFFF00
FFFF00
000600
000600
000600
ENDCHAR
STARTCHAR afii10044
ENCODING 1066
SWIDTH 631 0
DWIDTH 12 0
BBX 9 14 3 0
BITMAP
F800
F000
3000
3000
3000
3000
7C00
7F00
6380
6180
6180
C380
FF00
FE00
ENDCHAR
STARTCHAR afii10045
ENCODING 1067
SWIDTH 842 0
DWIDTH 16 0
BBX 16 14 2 0
BITMAP
1803
3003
3002
3006
3006
3006
7C06
7F0C
638C
618C
618C
C388
FF18
FE18
ENDCHAR
STARTCHAR afii10046
ENCODING 1068
SWIDTH 578 0
DWIDTH 11 0
BBX 9 14 2 0
BITMAP
1800
3000
3000
3000
3000
3000
7C00
7F00
6380
6180
6180
C380
FF00
FE00
ENDCHAR
STARTCHAR afii10047
ENCODING 1069
SWIDTH 684 0
DWIDTH 13 0
BBX 12 14 1 0
BITMAP
1FC0
3FE0
2070
0030
0030
0030
0FF0
0FF0
0030
0060
00E0
81C0
FF80
7E00
ENDCHAR
STARTCHAR afii10048
ENCODING 1070
SWIDTH 1052 0
DWIDTH 20 0
BBX 18 14 2 0
BITMAP
181F00
187F80
10E1C0
3180C0
3380C0
3300C0
3E00C0
7E00C0
6600C0
660180
670380
430700
C3FE00
C0F800
ENDCHAR
STARTCHAR afii10049
ENCODING 1071
SWIDTH 631 0
DWIDTH 12 0
BBX 13 14 0 0
BITMAP
03F8
07F8
0E18
0C30
0C30
0430
0230
03F0
07E0
0E60
1C60
3860
7060
E0C0
ENDCHAR
STARTCHAR afii10065
ENCODING 1072
SWIDTH 631 0
DWIDTH 12 0
BBX 10 10 2 0
BITMAP
0FC0
1FC0
38C0
7180
6180
C380
C780
CF80
FD00
7300
ENDCHAR
STARTCHAR afii10066
ENCODING 1073
SWIDTH 578 0
DWIDTH 11 0
BBX 10 14 2 0
BITMAP
07C0
1F80
3000
3000
6F00
7F80
7180
6180
C180
C180
C180
C700
FE00
7C00
ENDCHAR
STARTCHAR afii10067
ENCODING 1074
SWIDTH 578 0
DWIDTH 11 0
BBX 10 14 2 0
BITMAP
0780
0FC0
18C0
30C0
3180
6300
6780
6980
C180
C180
C180
C700
FE00
7C00
ENDCHAR
STARTCHAR afii10068
ENCODING 1075
SWIDTH 526 0
DWIDTH 10 0
BBX 8 10 2 0
BITMAP
1E
3F
23
07
1E
78
E0
C2
FE
7C
ENDCHAR
STARTCHAR afii10069
ENCODING 1076
SWIDTH 578 0
DWIDTH 11 0
BBX 9 14 2 0
BITMAP
1800
1E00
0700
0300
0F80
3F80
7180
6180
C180
C180
C180
C700
FE00
7C00
ENDCHAR
STARTCHAR afii10070
ENCODING 1077
SWIDTH 526 0
DWIDTH 10 0
BBX 8 10 2 0
BITMAP
0F
3F
73
63
C6
F8
C1
C3
FF
7C
ENDCHAR
STARTCHAR afii10072
ENCODING 1078
SWIDTH 842 0
DWIDTH 16 0
BBX 17 10 0 0
BITMAP
1C6380
0C6600
064C00
06D800
03F000
06D800
0CD800
188C00
318600
E18700
ENDCHAR
STARTCHAR afii10073
ENCODING 1079
SWIDTH 473 0
DWIDTH 9 0
BBX 8 10 1 0
BITMAP
3E
7F
43
07
3C
3E
03
83
FF
7C
ENDCHAR
STARTCHAR afii10074
ENCODING 1080
SWIDTH 631 0
DWIDTH 12 0
BBX 10 10 2 0
BITMAP
70C0
60C0
6080
6180
6380
C780
CF80
DD00
FB00
7300
ENDCHAR
STARTCHAR afii10075
ENCODING 1081
SWIDTH 631 0
DWIDTH 12 0
BBX 10 14 2 0
BITMAP
1980
1F00
0E00
0000
70C0
60C0
6080
6180
6380
C780
CF80
DD00
FB00
7300
ENDCHAR
STARTCHAR afii10076
ENCODING 1082
SWIDTH 578 0
DWIDTH 11 0
BBX 10 10 2 0
BITMAP
31C0
3300
2600
6C00
7800
6C00
6C00
4600
C300
C380
ENDCHAR
STARTCHAR afii10077
ENCODING 1083
SWIDTH 631 0
DWIDTH 12 0
BBX 12 10 1 0
BITMAP
0FF0
0FF0
0C30
1860
1860
1860
1860
3040
F0C0
E0C0
ENDCHAR
STARTCHAR afii10078
ENCODING 1084
SWIDTH 736 0
DWIDTH 14 0
BBX 13 10 2 0
BITMAP
3818
3C38
3C78
6C70
6EB0
67B0
6730
4720
C660
C060
ENDCHAR
STARTCHAR afii10079
ENCODING 1085
SWIDTH 631 0
DWIDTH 12 0
BBX 11 10 2 0
BITMAP
3060
3060
2060
60C0
7FC0
7FC0
60C0
C080
C180
C180
ENDCHAR
STARTCHAR afii10080
ENCODING 1086
SWIDTH 578 0
DWIDTH 11 0
BBX 9 10 2 0
BITMAP
0F00
3F80
7180
6180
C180
C180
C180
C700
FE00
7C00
ENDCHAR
STARTCHAR afii10081
ENCODING 1087
SWIDTH 631 0
DWIDTH 12 0
BBX 10 10 2 0
BITMAP
3380
37C0
2EC0
7CC0
78C0
7080
6180
4180
C180
C180
ENDCHAR
STARTCHAR afii10082
ENCODING 1088
SWIDTH 631 0
DWIDTH 12 0
BBX 11 14 1 -4
BITMAP
19C0
37E0
3E60
3C60
3860
30C0
61C0
6380
7F00
7C00
6000
C000
C000
C000
ENDCHAR
STARTCHAR afii10083
ENCODING 1089
SWIDTH 526 0
DWIDTH 10 0
BBX 9 10 2 0
BITMAP
0F80
3F00
7000
6000
C000
C000
C000
C200
FE00
7C00
ENDCHAR
STARTCHAR afii10084
ENCODING 1090
SWIDTH 947 0
DWIDTH 18 0
BBX 16 10 2 0
BITMAP
338F
37DF
6EFB
7CF3
79E3
71C2
6186
E186
C106
C304
ENDCHAR
STARTCHAR afii10085
ENCODING 1091
SWIDTH 526 0
DWIDTH 10 0
BBX 10 14 2 -4
BITMAP
60C0
6180
6180
6300
6700
6600
3E00
3C00
3800
3800
3000
3000
6000
C000
ENDCHAR
STARTCHAR afii10086
ENCODING 1092
SWIDTH 842 0
DWIDTH 16 0
BBX 14 18 2 -4
BITMAP
00C0
0080
0180
0180
0DB8
3F7C
73CC
638C
C30C
C30C
C618
C738
FFF0
76C0
0600
0C00
0C00
0C00
ENDCHAR
STARTCHAR afii10087
ENCODING 1093
SWIDTH 526 0
DWIDTH 10 0
BBX 11 10 1 0
BITMAP
3060
18C0
0980
0F00
0600
0E00
1B00
3300
6180
C180
ENDCHAR
STARTCHAR afii10088
ENCODING 1094
SWIDTH 631 0
DWIDTH 12 0
BBX 10 12 2 -2
BITMAP
70C0
60C0
6080
6180
6380
C780
CF80
DD00
FB80
7380
0300
0300
ENDCHAR
STARTCHAR afii10089
ENCODING 1095
SWIDTH 578 0
DWIDTH 11 0
BBX 9 10 2 0
BITMAP
6180
6180
4300
C700
CF00
FB00
7300
0200
0600
0600
ENDCHAR
STARTCHAR afii10090
ENCODING 1096
SWIDTH 947 0
DWIDTH 18 0
BBX 16 10 2 0
BITMAP
20C3
6083
6187
6186
438E
C79E
CF3E
DF76
FBEC
F1CC
ENDCHAR
STARTCHAR afii10091
ENCODING 1097
SWIDTH 947 0
DWIDTH 18 0
BBX 16 12 2 -2
BITMAP
20C3
6083
6187
6186
438E
C79E
CF3E
DF74
FBEE
F1CE
000C
000C
ENDCHAR
STARTCHAR afii10092
ENCODING 1098
SWIDTH 578 0
DWIDTH 11 0
BBX 8 10 3 0
BITMAP
F0
F0
36
6F
73
63
C3
C6
FC
78
ENDCHAR
STARTCHAR afii10093
ENCODING 1099
SWIDTH 789 0
DWIDTH 15 0
BBX 14 10 2 0
BITMAP
300C
300C
260C
6F18
7318
6318
C318
C610
FC30
7830
ENDCHAR
STARTCHAR afii10094
ENCODING 1100
SWIDTH 526 0
DWIDTH 10 0
BBX 8 10 2 0
BITMAP
30
30
26
6F
73
63
C3
C6
FC
78
ENDCHAR
STARTCHAR afii10095
ENCODING 1101
SWIDTH 526 0
DWIDTH 10 0
BBX 9 10 1 0
BITMAP
3F00
3F80
0380
0180
0F80
0F80
0180
8300
FE00
7C00
ENDCHAR
STARTCHAR afii10096
ENCODING 1102
SWIDTH 578 0
DWIDTH 11 0
BBX 14 10 -3 0
BITMAP
3078
31FC
338C
630C
7E0C
7E0C
660C
4638
C7F0
C3E0
ENDCHAR
STARTCHAR afii10097
ENCODING 1103
SWIDTH 578 0
DWIDTH 11 0
BBX 11 10 0 0
BITMAP
0FE0
1FE0
1860
18C0
07C0
0FC0
0CC0
1880
3180
E180
ENDCHAR
STARTCHAR uni0450
ENCODING 1104
SWIDTH 529 0
DWIDTH 10 0
BBX 8 14 2 0
BITMAP
0C
04
06
00
0F
3F
73
63
C6
F8
C1
C3
FF
7C
ENDCHAR
STARTCHAR afii10071
ENCODING 1105
SWIDTH 529 0
DWIDTH 10 0
BBX 9 13 2 0
BITMAP
1980
1980
0000
0F00
3F00
7300
6300
C600
F800
C100
C300
FF00
7C00
ENDCHAR
STARTCHAR afii10099
ENCODING 1106
SWIDTH 631 0
DWIDTH 12 0
BBX 10 18 2 -4
BITMAP
1800
7F00
7F00
3000
3380
37C0
2EC0
7CC0
78C0
7080
6180
4180
C180
C180
0300
0300
1E00
1C00
ENDCHAR
STARTCHAR afii10100
ENCODING 1107
SWIDTH 526 0
DWIDTH 10 0
BBX 9 14 2 0
BITMAP
0380
0600
0C00
0000
1E00
3F00
2300
0700
1E00
7800
E000
C200
FE00
7C00
ENDCHAR
STARTCHAR afii10101
ENCODING 1108
SWIDTH 526 0
DWIDTH 10 0
BBX 9 10 2 0
BITMAP
0F80
3F00
7000
6000
F800
F800
C000
C200
FE00
7C00
ENDCHAR
STARTCHAR afii10102
ENCODING 1109
SWIDTH 489 0
DWIDTH 9 0
BBX 8 10 2 0
BITMAP
1E
3F
31
30
18
0C
06
86
FE
7C
ENDCHAR
STARTCHAR afii10103
ENCODING 1110
SWIDTH 289 0
DWIDTH 5 0
BBX 5 14 2 0
BITMAP
18
18
00
00
30
30
30
60
60
60
60
40
C0
C0
ENDCHAR
STARTCHAR afii10104
ENCODING 1111
SWIDTH 289 0
DWIDTH 5 0
BBX 7 13 2 0
BITMAP
66
66
00
30
30
20
60
60
60
60
40
C0
C0
ENDCHAR
STARTCHAR afii10105
ENCODING 1112
SWIDTH 325 0
DWIDTH 6 0
BBX 9 18 -1 -4
BITMAP
0180
0180
0000
0000
0300
0300
0300
0300
0200
0600
0600
0600
0600
0400
0C00
1C00
F800
F000
ENDCHAR
STARTCHAR afii10106
ENCODING 1113
SWIDTH 894 0
DWIDTH 17 0
BBX 16 10 1 0
BITMAP
0FE0
0FE0
0C66
186F
1873
18E3
18C3
30C6
F0FC
E078
ENDCHAR
STARTCHAR afii10107
ENCODING 1114
SWIDTH 894 0
DWIDTH 17 0
BBX 15 10 2 0
BITMAP
30C0
30C0
20CC
619E
7FA6
7FC6
6186
C18C
C1F8
C0F0
ENDCHAR
STARTCHAR afii10108
ENCODING 1115
SWIDTH 631 0
DWIDTH 12 0
BBX 10 14 2 0
BITMAP
1800
7F00
7F00
3000
3380
37C0
2EC0
7CC0
78C0
7080
6180
4180
C180
C180
ENDCHAR
STARTCHAR afii10109
ENCODING 1116
SWIDTH 578 0
DWIDTH 11 0
BBX 10 14 2 0
BITMAP
01C0
0300
0600
0000
31C0
3300
2600
6C00
7800
6C00
6C00
4600
C300
C380
ENDCHAR
STARTCHAR afii10110
ENCODING 1118
SWIDTH 526 0
DWIDTH 10 0
BBX 10 18 2 -4
BITMAP
1980
1F00
0E00
0000
60C0
6180
6180
6300
6700
6600
3E00
3C00
3800
3800
3000
3000
6000
C000
ENDCHAR
STARTCHAR afii10193
ENCODING 1119
SWIDTH 631 0
DWIDTH 12 0
BBX 10 12 2 -2
BITMAP
70C0
60C0
6080
6180
6380
C780
CF80
DD00
FB00
7300
3000
3000
ENDCHAR
STARTCHAR afii10146
ENCODING 1122
SWIDTH 578 0
DWIDTH 11 0
BBX 9 14 2 0
BITMAP
1800
3000
FC00
FC00
3000
3000
7C00
7F00
6380
6180
6180
C380
FF00
FE00
ENDCHAR
STARTCHAR afii10194
ENCODING 1123
SWIDTH 526 0
DWIDTH 10 0
BBX 8 14 2 0
BITMAP
18
10
30
30
FC
FC
36
6F
73
63
C3
C6
FC
78
ENDCHAR
STARTCHAR afii10147
ENCODING 1138
SWIDTH 789 0
DWIDTH 15 0
BBX 13 14 2 0
BITMAP
03E0
0FF0
1C38
3018
7018
6018
FFF8
FFF8
C018
C030
E070
60E0
7FC0
1F00
ENDCHAR
STARTCHAR afii10195
ENCODING 1139
SWIDTH 578 0
DWIDTH 11 0
BBX 9 10 2 0
BITMAP
0F00
3F80
7180
6180
FF80
FF80
C180
C700
FE00
7C00
ENDCHAR
STARTCHAR afii10148
ENCODING 1140
SWIDTH 684 0
DWIDTH 13 0
BBX 12 14 3 0
BITMAP
C030
C070
C0C0
60C0
6180
6180
6300
6200
3600
3400
3C00
3C00
3800
3800
ENDCHAR
STARTCHAR afii10196
ENCODING 1141
SWIDTH 526 0
DWIDTH 10 0
BBX 9 10 3 0
BITMAP
C180
C380
C600
C400
4C00
4800
7800
7000
7000
6000
ENDCHAR
STARTCHAR afii10050
ENCODING 1168
SWIDTH 526 0
DWIDTH 10 0
BBX 11 17 2 0
BITMAP
0060
0060
0060
1FC0
3FC0
3000
3000
3000
2000
6000
6000
6000
6000
6000
C000
C000
C000
ENDCHAR
STARTCHAR afii10098
ENCODING 1169
SWIDTH 473 0
DWIDTH 9 0
BBX 10 12 2 0
BITMAP
00C0
00C0
3F80
3F80
3000
6000
6000
6000
6000
4000
C000
C000
ENDCHAR
STARTCHAR uni04AA
ENCODING 1194
SWIDTH 679 0
DWIDTH 13 0
BBX 13 18 2 -4
BITMAP
03F0
0FF8
1C08
3800
7000
6000
E000
C000
C000
C000
C000
6020
7FE0
1F00
0800
0C00
0400
1800
ENDCHAR
STARTCHAR uni04AB
ENCODING 1195
SWIDTH 503 0
DWIDTH 10 0
BBX 9 14 2 -4
BITMAP
0F80
3F00
7000
6000
C000
C000
C000
C200
FE00
7C00
2000
3000
1000
6000
ENDCHAR
STARTCHAR uni04AE
ENCODING 1198
SWIDTH 608 0
DWIDTH 12 0
BBX 11 14 3 0
BITMAP
C0E0
60C0
6180
7380
3700
3600
1C00
1800
1800
1800
1800
3000
3000
3000
ENDCHAR
STARTCHAR uni04C0
ENCODING 1216
SWIDTH 289 0
DWIDTH 5 0
BBX 5 14 2 0
BITMAP
18
18
10
30
30
30
30
60
60
60
60
40
C0
C0
ENDCHAR
STARTCHAR uni04D2
ENCODING 1234
SWIDTH 687 0
DWIDTH 13 0
BBX 13 17 0 0
BITMAP
0330
0330
0000
00C0
01E0
01E0
0360
0260
0660
0C70
0C30
1830
1FF0
3FF0
2038
6018
C018
ENDCHAR
STARTCHAR uni04D3
ENCODING 1235
SWIDTH 608 0
DWIDTH 12 0
BBX 10 13 2 0
BITMAP
0CC0
0CC0
0000
0FC0
1FC0
38C0
7180
6180
C380
C780
CF80
FD00
7300
ENDCHAR
STARTCHAR uni04D4
ENCODING 1236
SWIDTH 893 0
DWIDTH 17 0
BBX 19 14 0 0
BITMAP
003FE0
007FE0
007800
00F000
01F000
03BF80
033F80
063000
0FE000
1FE000
306000
306000
607F80
C0FF80
ENDCHAR
STARTCHAR uni04D5
ENCODING 1237
SWIDTH 893 0
DWIDTH 17 0
BBX 15 10 2 0
BITMAP
07DE
1FFE
38E6
61C6
638C
C3F0
C782
CF86
FCFE
78F8
ENDCHAR
STARTCHAR uni04E6
ENCODING 1254
SWIDTH 777 0
DWIDTH 15 0
BBX 13 17 2 0
BITMAP
0660
0660
0000
03E0
0FF0
1C38
3018
7018
6018
C018
C018
C018
C030
E070
60E0
7FC0
1F00
ENDCHAR
STARTCHAR uni04E7
ENCODING 1255
SWIDTH 566 0
DWIDTH 11 0
BBX 10 13 2 0
BITMAP
0CC0
0CC0
0000
0F00
3F80
7180
6180
C180
C180
C180
C700
FE00
7C00
ENDCHAR
STARTCHAR uni04E8
ENCODING 1256
SWIDTH 789 0
DWIDTH 15 0
BBX 13 14 2 0
BITMAP
03E0
0FF0
1C38
3018
7018
6018
FFF8
FFF8
C018
C030
E070
60E0
7FC0
1F00
ENDCHAR
STARTCHAR uni04E9
ENCODING 1257
SWIDTH 578 0
DWIDTH 11 0
BBX 9 10 2 0
BITMAP
0F00
3F80
7180
6180
FF80
FF80
C180
C700
FE00
7C00
ENDCHAR
ENDFONT
